# xmcd CD database file
#
# Track frame offsets:
#	150
#	17087
#	33801
#	48563
#	65724
#	82958
#	103573
#	121532
#	132805
#	151150
#	167090
#	189803
#	206551
#	225975
#	243876
#	261317
#	277015
#	287773
#	305643
#
# Disc length: 4299 seconds
#
# Revision: 0
# Processed by: cddbd v1.5.1PL2 Copyright (c) Steve Scherf et al.
# Submitted via: Feurio! 1.68 - http://www.feurio.com
#
DISCID=f710c913
DTITLE=Various Artist - New Country Roads
DYEAR=2003
DGENRE=Country
TTITLE0=Jon Dean Foster - born surivor
TTITLE1=Paul Delicato - is this all there is to a honky tonk
TTITLE2=Katja Kaye - on my way
TTITLE3=Doug Adkins and One More Ride - ropin' the wind
TTITLE4=Charlie Boston Band - wing and a prayer
TTITLE5=The Dallahachie Boys - burn
TTITLE6=Ricky Valance - a million ways to fall
TTITLE7=Country - Sisters - dare to go bare
TTITLE8=Jon Dean Foster - mystified
TTITLE9=Laura Dodo - 10001 kisses
TTITLE10=Charlie Boston Band - blue skies
TTITLE11=Doug Adkins and One More Ride - back room deals
TTITLE12=Katka Kaye - that makes two of us
TTITLE13=Ricky Valance - amazing love
TTITLE14=The Dallahachie Boys - doin' fine
TTITLE15=Laura Dodo - wow
TTITLE16=Country - Sisters - you can make me happy
TTITLE17=Paul Delicato - gone at last
TTITLE18=Tequila Sunrise - every once in a while
EXTD=
EXTT0=
EXTT1=
EXTT2=
EXTT3=
EXTT4=
EXTT5=
EXTT6=
EXTT7=
EXTT8=
EXTT9=
EXTT10=
EXTT11=
EXTT12=
EXTT13=
EXTT14=
EXTT15=
EXTT16=
EXTT17=
EXTT18=
PLAYORDER=
